<svg data-v-ac8a410e="" xmlns="http://www.w3.org/2000/svg" viewBox="0 0 30 30" aria-hidden="true" role="img" class="icon menu__list-item-icon icon icon-home-livegames sm" icon="home/livegames" style="animation-duration: 0.53s; animation-delay: -0.32s;">
                                                        <defs>
                                                            <linearGradient id="livegames_svg__a" x1="-64.759%" x2="100%" y1="-58.111%" y2="100%">
                                                                <stop offset="0%" stop-color="#F0DA4B"></stop>
                                                                <stop offset="100%" stop-color="#FF005E"></stop>
                                                            </linearGradient>
                                                        </defs>
                                                        <g fill="none" fill-rule="evenodd">
                                                            <path fill="#fff" d="M16.006 5.304l.244.089v19.214c-.804.326-1.7.336-2.51.028l-7.092-2.69-.36-.144c-.36-.154-.523-.266-.683-.41a1.689 1.689 0 01-.457-.667c-.089-.232-.137-.451-.146-.973L5 10.46c0-.678.048-.923.148-1.184.1-.26.25-.48.457-.667l.142-.117c.178-.132.413-.253.901-.438l7.091-2.69a3.444 3.444 0 012.267-.06zM7.812 16.896c-.448 0-.812.566-.812 1.264 0 .699.364 1.264.813 1.264.448 0 .812-.565.812-1.264 0-.698-.364-1.264-.813-1.264zm12.375-1.264c.45 0 .813.566.813 1.264 0 .698-.364 1.264-.813 1.264-.448 0-.812-.566-.812-1.264 0-.698.364-1.264.813-1.264zm-9.875-2.528c-.448 0-.812.566-.812 1.264 0 .698.364 1.264.813 1.264.448 0 .812-.566.812-1.264 0-.698-.364-1.264-.813-1.264zm12.376-1.264c.448 0 .812.566.812 1.264 0 .698-.364 1.264-.813 1.264-.448 0-.812-.566-.812-1.264 0-.698.364-1.264.813-1.264zm-9.875-2.53c-.45 0-.813.566-.813 1.265 0 .698.364 1.264.813 1.264.448 0 .812-.566.812-1.264 0-.699-.364-1.265-.813-1.265z">
                                                            </path>
                                                            <path fill="url(#livegames_svg__a)" d="M15.759.051c.423.057.775.139 1.442.337l7.438 2.255c1.521.462 2.312.837 3.106 1.49a5.94 5.94 0 011.736 2.36c.39.957.519 1.831.519 3.437v10.14c0 1.606-.128 2.48-.519 3.436a5.934 5.934 0 01-1.736 2.36c-.794.654-1.585 1.03-3.106 1.49l-7.172 2.177c-.847.256-1.232.352-1.708.416a5.673 5.673 0 01-1.518 0c-.423-.057-.775-.139-1.442-.337L5.36 27.357c-1.521-.462-2.312-.837-3.106-1.49A5.956 5.956 0 01.52 23.506c-.36-.884-.498-1.696-.517-3.079L0 9.93c0-1.606.128-2.48.519-3.436.38-.93.965-1.725 1.736-2.36.794-.654 1.585-1.03 3.106-1.49L12.533.466C13.38.211 13.765.115 14.24.051a5.673 5.673 0 011.518 0zm-1.19 2.507l-.178.027a7.168 7.168 0 00-.738.184L6.08 5.065c-1.341.407-1.797.66-2.246 1.03a3.4 3.4 0 00-1.003 1.364l-.083.217C2.582 8.153 2.5 8.703 2.5 9.93v10.14l.006.52c.025 1.034.132 1.482.324 1.951.22.542.554.995 1.003 1.364l.182.143c.373.274.826.497 1.807.807l7.831 2.376c.467.135.679.18.915.211.296.04.568.04.864 0l.177-.027c.181-.032.388-.083.738-.184l7.574-2.296c1.341-.407 1.797-.66 2.246-1.03a3.4 3.4 0 001.003-1.364l.083-.217c.165-.477.247-1.027.247-2.254V9.93l-.006-.52c-.025-1.034-.132-1.482-.324-1.951a3.383 3.383 0 00-1.003-1.364l-.182-.143c-.373-.274-.826-.497-1.807-.807l-7.831-2.376c-.467-.135-.679-.18-.915-.211a3.125 3.125 0 00-.864 0z">
                                                            </path>
                                                        </g>
                                                    </svg>