<svg data-v-ac8a410e="" xmlns="http://www.w3.org/2000/svg" width="33" height="33" viewBox="0 0 33 33" aria-hidden="true" role="img" class="icon menu__list-item-icon icon icon-home-poker sm" icon="home/poker" style="animation-duration: 0.23s; animation-delay: -0.54s;">
                                                        <defs>
                                                            <linearGradient id="poker_svg__a" x1="73.763%" x2="26.237%" y1="0%" y2="100%">
                                                                <stop offset="0%" stop-color="#3DC5FE"></stop>
                                                                <stop offset="100%" stop-color="#D81AED"></stop>
                                                            </linearGradient>
                                                        </defs>
                                                        <g fill="none" fill-rule="evenodd">
                                                            <path fill="#FFF" d="M20.124 6.362l6.68 2.564c1.353.519 1.79.848 2.182 1.302.393.454.632.991.707 1.587.074.596.027 1.14-.492 2.493L23.74 28.535c-.52 1.352-.849 1.789-1.303 2.182a2.946 2.946 0 01-1.587.706c-.596.075-1.14.028-2.493-.492l-5.414-2.079 3.88-.614c2.158-.342 2.992-.7 3.737-1.243l.102-.075a4.782 4.782 0 001.65-2.27c.317-.917.424-1.803.066-4.059L20.124 6.362zm4.494 5.933c-.26.675.053 1.423.698 1.67.644.247 1.377-.1 1.636-.775.26-.675-.053-1.423-.698-1.67-.644-.247-1.377.1-1.636.775z">
                                                            </path>
                                                            <path fill="url(#poker_svg__a)" fill-rule="nonzero" d="M14.084 2c1.448 0 1.974.15 2.503.434.53.283.946.699 1.229 1.229.283.53.434 1.055.434 2.503v15.24c0 1.448-.15 1.973-.434 2.503-.283.53-.699.945-1.229 1.228-.53.284-1.055.434-2.503.434H6.166c-1.448 0-1.974-.15-2.503-.434a2.952 2.952 0 01-1.229-1.228C2.151 23.379 2 22.854 2 21.405V6.166c0-1.448.15-1.974.434-2.503.283-.53.699-.946 1.229-1.229C4.193 2.151 4.718 2 6.166 2h7.918zM5.75 20.333c-.69 0-1.25.587-1.25 1.31 0 .723.56 1.31 1.25 1.31S7 22.365 7 21.642s-.56-1.31-1.25-1.31zm5.223-10.34c-.558-.407-1.363-.268-1.796.31l-2.092 2.793c-.345.46-.359 1.077-.036 1.521l1.965 2.699c.073.1.162.19.263.262.558.407 1.363.268 1.796-.31l2.092-2.793c.345-.46.359-1.077.036-1.52l-1.965-2.7a1.189 1.189 0 00-.263-.262zM14.5 4.619c-.69 0-1.25.586-1.25 1.31 0 .723.56 1.31 1.25 1.31s1.25-.587 1.25-1.31c0-.724-.56-1.31-1.25-1.31z" transform="rotate(-9 16.503 10.644)"></path>
                                                        </g>
                                                    </svg>